<svg xmlns="http://www.w3.org/2000/svg" viewBox="0 0 48 48" role="img" aria-labelledby="title">
  <title id="title">WhatsApp</title>
  <rect width="48" height="48" rx="10" fill="#25d366"/>
  <path d="M24 10.5c-7.3 0-13.2 5.8-13.2 13 0 2.5.7 4.8 2 6.8l-1.5 7.2 7.4-1.8c1.7.6 3.4.9 5.3.9 7.3 0 13.2-5.8 13.2-13.1S31.3 10.5 24 10.5z" fill="#fff"/>
  <path d="M24 13.1c5.8 0 10.6 4.7 10.6 10.4S29.8 34 24 34c-1.7 0-3.3-.4-4.8-1.1l-.5-.2-4.1 1 1-4-.3-.5c-1.1-1.7-1.7-3.7-1.7-5.8 0-5.7 4.7-10.3 10.4-10.3z" fill="#25d366"/>
  <path d="M19.5 18.1c-.3-.7-.6-.7-.9-.7h-.8c-.3 0-.7.1-1 .5-.3.4-1.3 1.2-1.3 3s1.4 3.6 1.6 3.8c.2.3 2.7 4.2 6.7 5.7 3.3 1.3 4 .9 4.8.8.7-.1 2.3-1 2.6-1.9.3-.9.3-1.7.2-1.9-.1-.2-.4-.3-.8-.5l-2.5-1.2c-.4-.1-.7-.2-.9.2-.3.4-1 1.2-1.2 1.5-.2.3-.5.3-.9.1-.4-.2-1.6-.6-3-1.9-1.1-1-1.9-2.2-2.1-2.6-.2-.4 0-.6.2-.8.2-.2.4-.5.6-.7.2-.2.3-.4.4-.7.1-.3 0-.5 0-.7z" fill="#fff"/>
</svg>
